<svg width="126" height="80" viewBox="0 0 126 80" xmlns="http://www.w3.org/2000/svg"><title>Logo / InseecU</title><path d="M82.59 47.504H42.05v-41.2h12.498v39.139l15.635-9.178V6.304H82.59v41.2zM67.838 0v34.816l-10.88 6.3V6.345L67.838 0zM0 79.333V62.301h3.277v17.032H0zm19.97-17.032h3.12v17.032h-2.608L9.383 65.88v13.454H6.308V62.301h4.123l9.539 11.506V62.3zm18.43 4.484a6.393 6.393 0 0 0-1.203-.85 7.882 7.882 0 0 0-1.303-.565 7.653 7.653 0 0 0-1.293-.306 8.36 8.36 0 0 0-1.17-.091c-.387 0-.807.027-1.26.08a5.621 5.621 0 0 0-1.27.294 2.637 2.637 0 0 0-.992.623c-.267.271-.4.627-.4 1.064 0 .258.08.53.244.816.164.287.498.498 1.003.634.386.106.84.204 1.36.295a314.332 314.332 0 0 0 3.198.531c.513.084.962.17 1.348.261.788.181 1.445.427 1.973.736.527.31.947.665 1.259 1.065.312.4.53.841.657 1.325.127.483.19.996.19 1.54 0 .921-.175 1.721-.524 2.4a4.749 4.749 0 0 1-1.437 1.688c-.61.446-1.323.778-2.14.997-.817.219-1.686.328-2.608.328-1.233 0-2.317-.11-3.253-.328-.936-.219-1.746-.498-2.43-.838-.683-.34-1.244-.71-1.683-1.11-.438-.4-.776-.781-1.014-1.144l2.497-1.766c.282.393.646.74 1.092 1.041a7.66 7.66 0 0 0 1.46.77c.527.212 1.07.371 1.626.476a8.437 8.437 0 0 0 1.572.159c.55 0 1.055-.053 1.515-.159.46-.105.858-.267 1.193-.487.334-.219.598-.49.79-.815.194-.325.29-.706.29-1.144 0-.468-.11-.838-.334-1.11-.223-.272-.531-.483-.925-.634a6.002 6.002 0 0 0-1.381-.329c-.528-.067-1.1-.135-1.717-.204a38.985 38.985 0 0 1-1.916-.26 12.971 12.971 0 0 1-1.973-.475c-1.025-.377-1.782-.902-2.273-1.575-.49-.671-.736-1.46-.736-2.367 0-.95.198-1.751.591-2.4a4.693 4.693 0 0 1 1.56-1.575 6.86 6.86 0 0 1 2.207-.86c.824-.174 1.66-.26 2.507-.26.817 0 1.601.078 2.351.237.75.159 1.445.366 2.084.623a9.331 9.331 0 0 1 1.705.883c.498.332.91.665 1.237.997L38.4 66.785zm18.774-1.563H45.45l1.04 1.2v2.787h9.227v2.9H46.49v4.303h11.188v2.921H43.504V62.301h13.67v2.921zm17.16 0H62.613l1.04 1.2v2.787h9.227v2.9h-9.227v4.303H74.84v2.921H60.665V62.301h13.67v2.921zm20.007 9.943a6.677 6.677 0 0 1-1.36 1.982 7.842 7.842 0 0 1-1.928 1.416 9.456 9.456 0 0 1-2.35.85 12.05 12.05 0 0 1-2.63.283c-1.412 0-2.694-.223-3.845-.669-1.152-.445-2.14-1.064-2.964-1.857a8.202 8.202 0 0 1-1.906-2.797c-.446-1.072-.67-2.234-.67-3.488 0-1.374.254-2.609.759-3.703a8.21 8.21 0 0 1 2.05-2.775 9.078 9.078 0 0 1 2.998-1.733c1.137-.4 2.33-.6 3.577-.6 1.902 0 3.566.438 4.992 1.313 1.427.876 2.541 2.07 3.344 3.58l-2.675 1.222a9.035 9.035 0 0 0-1.026-1.313 5.795 5.795 0 0 0-1.236-.997 5.696 5.696 0 0 0-1.516-.622 7.576 7.576 0 0 0-1.883-.215 7.43 7.43 0 0 0-2.44.396 5.904 5.904 0 0 0-2.006 1.154 5.514 5.514 0 0 0-1.36 1.846c-.334.726-.5 1.548-.5 2.47 0 .89.166 1.694.5 2.411.334.718.788 1.33 1.36 1.836.572.505 1.24.898 2.006 1.177.765.28 1.578.42 2.44.42.61 0 1.2-.057 1.772-.17a6.707 6.707 0 0 0 1.594-.522 5.17 5.17 0 0 0 1.325-.905 4.92 4.92 0 0 0 .993-1.326l2.585 1.336zm14.174-3.238c0 .89.156 1.642.468 2.253.312.612.72 1.107 1.226 1.484.505.377 1.077.65 1.716.815a7.557 7.557 0 0 0 3.856 0 4.898 4.898 0 0 0 1.716-.815 4.196 4.196 0 0 0 1.225-1.484c.313-.611.468-1.362.468-2.253V62.3h3.031v10.102c0 1.164-.226 2.194-.68 3.092a6.701 6.701 0 0 1-1.838 2.265 8.436 8.436 0 0 1-2.663 1.404 10.246 10.246 0 0 1-3.176.487 10.53 10.53 0 0 1-3.22-.487 8.24 8.24 0 0 1-2.675-1.404 6.74 6.74 0 0 1-1.827-2.265c-.454-.898-.68-1.928-.68-3.092V62.3h3.053v9.627zm14.444 7.406v-2.786h2.764v2.786h-2.764z" fill="#002D72" fill-rule="evenodd"/></svg>