<?xml version="1.0" encoding="utf-8"?>
<!-- Generator: Adobe Illustrator 23.0.1, SVG Export Plug-In . SVG Version: 6.00 Build 0)  -->
<svg version="1.1" id="art" xmlns="http://www.w3.org/2000/svg" xmlns:xlink="http://www.w3.org/1999/xlink" x="0px" y="0px"
	 viewBox="0 0 990 288" style="enable-background:new 0 0 990 288;" xml:space="preserve">
<style type="text/css">
	.st0{fill:url(#SVGID_1_);}
	.st1{fill:url(#SVGID_2_);}
	.st2{fill:url(#SVGID_3_);}
</style>
<g>
	<g>
		<g>
			<g>
				<linearGradient id="SVGID_1_" gradientUnits="userSpaceOnUse" x1="74.1938" y1="193.8542" x2="152.0104" y2="164.5323">
					<stop  offset="0" style="stop-color:#279E91"/>
					<stop  offset="0.049" style="stop-color:#3AA79C"/>
					<stop  offset="0.1533" style="stop-color:#54B7AE"/>
					<stop  offset="0.255" style="stop-color:#63C2B9"/>
					<stop  offset="0.3504" style="stop-color:#69C7BF"/>
				</linearGradient>
				<path class="st0" d="M99.19,179.13l-25.42,0c-9.64,0-11.78-6.13-10.18-11.14l-0.16,0.49c-1.18,4.34,0.31,6.52,1.65,9.1
					c4.4,8.44,18.21,33.76,18.21,33.76c1.73,3.03,4.11,4.71,8.04,4.71c7.75,0,20.2-8.02,20.2-8.02l46.47-28.91H99.19z"/>
				<linearGradient id="SVGID_2_" gradientUnits="userSpaceOnUse" x1="76.6046" y1="181.945" x2="122.5847" y2="77.8377">
					<stop  offset="0" style="stop-color:#D7DF23"/>
					<stop  offset="0.0223" style="stop-color:#D2DD26"/>
					<stop  offset="0.4034" style="stop-color:#80B942"/>
					<stop  offset="0.5301" style="stop-color:#7BB742"/>
					<stop  offset="0.6522" style="stop-color:#6EB143"/>
					<stop  offset="0.7724" style="stop-color:#57A845"/>
					<stop  offset="0.8908" style="stop-color:#2C9C47"/>
					<stop  offset="0.9784" style="stop-color:#009348"/>
				</linearGradient>
				<path class="st1" d="M108.59,72.31h-0.09c-5.09,0-6.24,3.23-6.5,3.83l-38.14,91.09c-2.07,5.12-0.23,11.9,9.91,11.9l25.42,0
					l29.51-69.82c-7.87-18.64-13.6-32.23-13.65-32.33C114.68,76.07,113.03,72.31,108.59,72.31z"/>
				<g>
					<linearGradient id="SVGID_3_" gradientUnits="userSpaceOnUse" x1="128.2582" y1="72.0815" x2="187.2685" y2="216.3902">
						<stop  offset="0" style="stop-color:#4DBEEE"/>
						<stop  offset="0.1155" style="stop-color:#38B3E7"/>
						<stop  offset="0.5167" style="stop-color:#0094D4"/>
						<stop  offset="0.8245" style="stop-color:#0083C9"/>
						<stop  offset="1" style="stop-color:#007DC5"/>
					</linearGradient>
					<path class="st2" d="M155.19,75.87c-0.35-0.85-1.91-3.83-6.21-3.92c0.05,0-0.18,0-0.18,0l-40.3,0c-4.22,0-5.82,2.75-6.14,3.42
						c0,0,1.42-3.07,6.14-3.07h0.09c4.44,0,6.1,3.77,6.47,4.68c0.04,0.1,5.77,13.69,13.65,32.33
						c17.34,41.09,45.05,106.74,45.05,106.74h40.63C214.38,216.05,155.55,76.73,155.19,75.87z"/>
				</g>
			</g>
			<g>
				<g>
					<g>
						<g>
							<path d="M329.04,179.13h-15.49L305.09,159h-39.44l-8.59,20.13h-15l36.7-84.01h13.58L329.04,179.13z M285.31,112.63
								l-14.3,33.38h28.72L285.31,112.63z"/>
							<path d="M464.28,179.13H449.5v-69.83h-26.46V95.71h68.88l-5.68,13.58h-21.96V179.13z"/>
							<path d="M744.89,109.29h-44.66v21.22h28.61v13.11h-28.61v22.17h44.68v13.33h-59.45V95.71h59.43V109.29z"/>
							<path d="M849.64,179.13h-13.99V95.71h13.99V179.13z"/>
						</g>
						<path d="M790.2,107.74c-8.52,0-15.76,2.57-15.8,8.23c-0.04,6.62,4.11,8.92,19.8,14.02c17.34,5.71,26.55,11.5,26.46,25.61
							c-0.1,15.89-12.38,24.96-30.33,24.96c-12.7,0-24.08-4.12-32.76-11.75l5.4-13.08c7.87,6.6,17.43,11.28,27.75,11.33
							c9.02,0.04,15.44-4.35,15.44-10.86c0-5.44-3.14-9.06-18.36-13.88c-17.46-5.72-28-11.69-27.92-25.91
							c0.11-14.14,13.37-22.18,30.05-22.1c16.68,0.08,26.07,6.18,27.49,7l-5.23,11.9C808.77,111.38,801.3,107.74,790.2,107.74z"/>
						<polygon points="867.65,136.09 905,95.71 887.11,95.71 849.64,136.09 890.81,179.14 908.94,179.14 						"/>
						<path d="M537.1,94.28c-23.82,0-43.14,19.32-43.14,43.14c0,23.83,19.31,43.15,43.14,43.15s43.15-19.31,43.15-43.15
							C580.25,113.6,560.92,94.28,537.1,94.28z M537.1,167.1c-16.39,0-28.36-13.29-28.36-29.68c0-16.39,11.96-29.68,28.36-29.68
							c16.39,0,28.37,13.29,28.37,29.68C565.47,153.81,553.49,167.1,537.1,167.1z"/>
						<path d="M627.33,95.71h-31.64v83.42l31.64-0.01c23.82,0,43.13-17.99,43.13-41.81C670.46,113.47,651.15,95.71,627.33,95.71z
							 M627.33,165.78l-16.85,0.02v-56.49h16.92c16.39,0,28.29,11.61,28.29,28C655.69,153.69,643.71,165.78,627.33,165.78z"/>
						<path d="M406.93,142.16c0,24.87-14.59,38.28-35.76,38.28c-21.16,0-35.75-13.41-35.75-38.28V95.71h14.78v48.22
							c0,14.59,8.56,23.15,20.98,23.15c12.41,0,20.98-8.57,20.98-23.15V95.71h14.77V142.16z"/>
					</g>
				</g>
				<g>
					<g>
						<g>
							<g>
								<g>
									<path d="M927,173.55c0-3.07-2.5-5.57-5.57-5.57c-3.05,0-5.55,2.5-5.55,5.57c0,3.07,2.5,5.56,5.55,5.56
										C924.5,179.11,927,176.62,927,173.55z M926.17,173.55c0,2.79-2.01,4.79-4.74,4.79c-2.7,0-4.73-2-4.73-4.79
										c0-2.78,2.03-4.79,4.73-4.79C924.16,168.76,926.17,170.77,926.17,173.55z"/>
								</g>
								<g>
									<path d="M923.84,176.39l-1.34-1.89c-0.24-0.34-0.41-0.56-0.67-0.76c0.96-0.12,1.53-0.65,1.53-1.49
										c0-0.86-0.6-1.62-1.76-1.62h-1.89v5.76h0.84v-2.58c0.44,0,0.62,0.14,0.91,0.56l1.39,2.02H923.84z M922.46,172.25
										c0,0.82-0.68,0.91-1.34,0.91h-0.58v-1.82h0.85C922.18,171.33,922.46,171.71,922.46,172.25z"/>
								</g>
							</g>
						</g>
					</g>
				</g>
			</g>
		</g>
	</g>
</g>
</svg>
